<mxfile host="app.diagrams.net" modified="2024-02-23T14:51:26.671Z" agent="Mozilla/5.0 (Windows NT 10.0; Win64; x64) AppleWebKit/537.36 (KHTML, like Gecko) Chrome/121.0.0.0 Safari/537.36" version="23.1.6" etag="Ac1OV8c0M2_M_8RUhLU5" type="github">
  <diagram name="PÃ¡gina-1" id="atNPpSZdh5qlKcRyEsEo">
    <mxGraphModel>
      <root>
        <mxCell id="0" />
        <mxCell id="1" parent="0" />
      </root>
    </mxGraphModel>
  </diagram>
</mxfile>
